<svg width="36" height="58" viewBox="0 0 36 58" fill="none" xmlns="http://www.w3.org/2000/svg">
<g clip-path="url(#clip0)">
<path d="M16.0875 29.034L0.787502 13.6277C-0.269998 12.5629 -0.269998 10.841 0.787502 9.7875L3.33 7.22734C4.3875 6.1625 6.0975 6.1625 7.14375 7.22734L17.9887 18.1477L28.8337 7.22734C29.8912 6.1625 31.6012 6.1625 32.6475 7.22734L35.2125 9.77617C36.27 10.841 36.27 12.5629 35.2125 13.6164L19.9125 29.0227C18.855 30.0988 17.145 30.0988 16.0875 29.034ZM19.9125 50.784L35.2125 35.3777C36.27 34.3129 36.27 32.591 35.2125 31.5375L32.67 28.9773C31.6125 27.9125 29.9025 27.9125 28.8562 28.9773L18 39.8863L7.155 28.966C6.0975 27.9012 4.3875 27.9012 3.34125 28.966L0.787502 31.5262C-0.269998 32.591 -0.269998 34.3129 0.787502 35.3664L16.0875 50.7727C17.145 51.8488 18.855 51.8488 19.9125 50.784Z" fill="#1DA1F2"/>
</g>
<defs>
<clipPath id="clip0">
<rect width="36" height="58" fill="white"/>
</clipPath>
</defs>
</svg>
