<svg width="246" height="56" viewBox="0 0 246 56" fill="none" xmlns="http://www.w3.org/2000/svg">
<path d="M53.0101 30.69C53.0101 33.7644 52.3198 36.1647 50.939 37.891C49.5583 39.6056 47.6301 40.4629 45.1548 40.4629C42.9655 40.4629 41.2177 39.6647 39.9116 38.0684L39.669 40.1081H34.8177V12.8649H40.2101V22.6377C41.454 21.2542 43.0898 20.5625 45.1174 20.5625C47.5804 20.5625 49.5085 21.4257 50.9017 23.1521C52.3073 24.8666 53.0101 27.2846 53.0101 30.4063V30.69ZM47.6177 30.3176C47.6177 28.3784 47.2943 26.9654 46.6475 26.0785C46.0006 25.1799 45.0366 24.7306 43.7553 24.7306C42.0387 24.7306 40.8569 25.3987 40.2101 26.7348V34.3083C40.8694 35.6563 42.0635 36.3302 43.7926 36.3302C45.5341 36.3302 46.6785 35.5144 47.2259 33.8826C47.4871 33.1022 47.6177 31.9139 47.6177 30.3176ZM62.6382 19.0726L59.3916 27.1782H55.0999L60.6791 14.2838H64.5974L70.1764 27.1782H65.9035L62.6382 19.0726ZM84.7681 40.1081C84.5189 39.6469 84.339 39.0735 84.2267 38.3877C82.9203 39.7711 81.2222 40.4629 79.1327 40.4629C77.1549 40.4629 75.5129 39.9189 74.2067 38.8311C72.9131 37.7432 72.2662 36.3716 72.2662 34.7162C72.2662 32.6824 73.0561 31.1216 74.6359 30.0338C76.2282 28.9459 78.5232 28.3961 81.5207 28.3843H84.003V27.2846C84.003 26.3978 83.7602 25.6883 83.2754 25.1563C82.8025 24.6242 82.0494 24.3581 81.0176 24.3581C80.1092 24.3581 79.394 24.565 78.8715 24.9789C78.3615 25.3928 78.1065 25.9603 78.1065 26.6816H72.714C72.714 25.5701 73.0748 24.5414 73.7963 23.5955C74.5178 22.6495 75.5378 21.9105 76.8564 21.3784C78.1749 20.8344 79.6554 20.5625 81.297 20.5625C83.7849 20.5625 85.7569 21.1596 87.2122 22.3539C88.6802 23.5364 89.4134 25.2036 89.4134 27.3555V35.674C89.4262 37.495 89.6937 38.8725 90.2159 39.8066V40.1081H84.7681ZM80.3083 36.5431C81.1044 36.5431 81.8384 36.3775 82.5103 36.0464C83.1814 35.7036 83.679 35.2483 84.003 34.6807V31.3818H81.9873C79.2883 31.3818 77.8515 32.2686 77.6773 34.0423L77.6587 34.3437C77.6587 34.9823 77.8951 35.5085 78.3677 35.9223C78.8404 36.3361 79.4873 36.5431 80.3083 36.5431Z" fill="white"/>
<path d="M93.8359 37.5895C93.8359 36.7737 94.1225 36.1115 94.6941 35.6031C95.2792 35.0946 96.0069 34.8404 96.8778 34.8404C97.7607 34.8404 98.4884 35.0946 99.0608 35.6031C99.6451 36.1115 99.9373 36.7737 99.9373 37.5895C99.9373 38.3936 99.6515 39.0499 99.0791 39.5582C98.5067 40.0549 97.7727 40.3032 96.8778 40.3032C95.9942 40.3032 95.2665 40.0549 94.6941 39.5582C94.1225 39.0499 93.8359 38.3936 93.8359 37.5895ZM110.629 31.0093V40.1081H105.032V14.2838H115.63C117.67 14.2838 119.461 14.6386 121.003 15.3479C122.558 16.0575 123.752 17.0684 124.586 18.3809C125.419 19.6816 125.836 21.1656 125.836 22.8328C125.836 25.3632 124.922 27.3614 123.093 28.8277C121.277 30.2821 118.758 31.0093 115.536 31.0093H110.629ZM110.629 26.6993H115.63C117.11 26.6993 118.236 26.3683 119.007 25.7061C119.791 25.044 120.183 24.098 120.183 22.8683C120.183 21.6031 119.791 20.5802 119.007 19.7999C118.223 19.0194 117.141 18.6174 115.76 18.5937H110.629V26.6993ZM139.756 30.6546H135.296V40.1081H129.699V14.2838H139.793C143.002 14.2838 145.478 14.9637 147.219 16.3235C148.961 17.6833 149.832 19.6047 149.832 22.0878C149.832 23.8496 149.427 25.3218 148.619 26.5042C147.823 27.6748 146.61 28.609 144.98 29.3066L150.858 39.8598V40.1081H144.849L139.756 30.6546ZM135.296 26.3446H139.812C141.218 26.3446 142.306 26.0076 143.077 25.3336C143.849 24.6478 144.234 23.7077 144.234 22.5135C144.234 21.2956 143.867 20.3378 143.133 19.6402C142.412 18.9425 141.298 18.5937 139.793 18.5937H135.296V26.3446ZM206.256 33.3328C206.256 32.3277 205.883 31.5591 205.137 31.027C204.39 30.4831 203.047 29.9155 201.106 29.3243C199.166 28.7213 197.63 28.1301 196.497 27.5506C193.413 25.9662 191.87 23.8319 191.87 21.1478C191.87 19.7526 192.28 18.511 193.102 17.4231C193.936 16.3235 195.123 15.4662 196.665 14.8514C198.22 14.2365 199.962 13.929 201.89 13.929C203.831 13.929 205.56 14.2661 207.077 14.94C208.595 15.6022 209.77 16.5422 210.604 17.7602C211.45 18.978 211.873 20.3614 211.873 21.9105H206.275C206.275 20.728 205.883 19.8117 205.1 19.1613C204.316 18.4991 203.215 18.1681 201.797 18.1681C200.429 18.1681 199.365 18.4459 198.606 19.0017C197.848 19.5456 197.468 20.2669 197.468 21.1656C197.468 22.005 197.91 22.7086 198.793 23.2762C199.688 23.8437 201.001 24.3758 202.729 24.8725C205.914 25.7829 208.234 26.9122 209.69 28.2602C211.145 29.6081 211.873 31.2872 211.873 33.2973C211.873 35.5321 210.984 37.288 209.204 38.565C207.426 39.8302 205.031 40.4629 202.021 40.4629C199.931 40.4629 198.028 40.1022 196.311 39.3809C194.595 38.6478 193.282 37.6486 192.374 36.3834C191.479 35.1182 191.031 33.6521 191.031 31.9848H196.647C196.647 34.8344 198.438 36.2593 202.021 36.2593C203.352 36.2593 204.39 36.005 205.137 35.4966C205.883 34.9764 206.256 34.255 206.256 33.3328Z" fill="#1DA1F2"/>
<path d="M33.4369 54.1081H97.9223" stroke="#1DA1F2" stroke-width="3"/>
<path fill-rule="evenodd" clip-rule="evenodd" d="M171.165 17.4054C165.619 17.4054 161.516 19.7922 158.73 22.3425C156.778 24.1439 155.162 26.2473 153.951 28.563C153.8 28.8589 153.721 29.1837 153.721 29.5127C153.721 29.8418 153.8 30.1666 153.951 30.4625C155.162 32.7786 156.777 34.8825 158.728 36.6845C161.516 39.2348 165.621 41.6216 171.165 41.6216C176.711 41.6216 180.814 39.2348 183.6 36.6845C185.552 34.8832 187.168 32.7797 188.379 30.464C188.53 30.1681 188.609 29.8433 188.609 29.5143C188.609 29.1852 188.53 28.8604 188.379 28.5645C187.169 26.2483 185.553 24.1444 183.602 22.3425C180.814 19.7922 176.711 17.4054 171.165 17.4054ZM171.165 23.4594C169.476 23.4594 167.856 24.0973 166.661 25.2326C165.467 26.368 164.796 27.9079 164.796 29.5135C164.796 31.1191 165.467 32.659 166.661 33.7944C167.856 34.9297 169.476 35.5676 171.165 35.5676C172.854 35.5676 174.474 34.9297 175.669 33.7944C176.863 32.659 177.534 31.1191 177.534 29.5135C177.534 27.9079 176.863 26.368 175.669 25.2326C174.474 24.0973 172.854 23.4594 171.165 23.4594ZM171.165 32.5405C172.01 32.5405 172.819 32.2216 173.416 31.6539C174.014 31.0863 174.35 30.3163 174.35 29.5135C174.35 28.7107 174.014 27.9407 173.416 27.3731C172.819 26.8054 172.01 26.4865 171.165 26.4865C170.32 26.4865 169.511 26.8054 168.913 27.3731C168.316 27.9407 167.981 28.7107 167.981 29.5135C167.981 30.3163 168.316 31.0863 168.913 31.6539C169.511 32.2216 170.32 32.5405 171.165 32.5405Z" fill="#1DA1F2"/>
</svg>
